<?xml version="1.0"?>
<svg width="29" height="28" xmlns="http://www.w3.org/2000/svg" xmlns:svg="http://www.w3.org/2000/svg" class="navbar-content-logo-desktop">
 <defs>
  <clipPath id="clip0_1868_2965">
   <rect fill="white" height="28" id="svg_1" width="133"/>
  </clipPath>
 </defs>
 <g class="layer">
  <title>Layer 1</title>
  <g clip-path="url(#clip0_1868_2965)" id="svg_2">
   <path d="m13.15,21.89l-1.93,1.85c-0.21,0.2 -0.5,0.32 -0.8,0.32c-0.3,0 -0.59,-0.12 -0.8,-0.32l-9.13,-8.78c-0.21,-0.21 -0.33,-0.49 -0.33,-0.78c0,-0.29 0.12,-0.56 0.33,-0.77l9.2,-8.85c0.21,-0.2 0.5,-0.32 0.8,-0.32c0.3,0 0.59,0.12 0.8,0.32l1.93,1.85c0.21,0.21 0.33,0.49 0.33,0.77c0,0.29 -0.12,0.57 -0.33,0.78l-0.23,0.21l-5.44,5.23c-0.21,0.21 -0.33,0.49 -0.33,0.78c0,0.29 0.12,0.56 0.33,0.77l5.6,5.4c0.1,0.1 0.19,0.22 0.24,0.35c0.06,0.13 0.09,0.27 0.09,0.42c0,0.14 -0.03,0.28 -0.09,0.41c-0.05,0.14 -0.14,0.26 -0.24,0.36z" fill="#00DF6B" id="svg_3"/>
   <path d="m11.98,25.99l1.91,1.84c0.22,0.2 0.51,0.32 0.81,0.32c0.3,0 0.59,-0.12 0.8,-0.32l0.07,-0.07l13.38,-12.87c0.11,-0.1 0.19,-0.22 0.25,-0.36c0.05,-0.13 0.08,-0.27 0.08,-0.41c0,-0.15 -0.03,-0.29 -0.08,-0.42c-0.06,-0.13 -0.14,-0.25 -0.25,-0.35l-13.38,-12.88c-0.11,-0.1 -0.23,-0.18 -0.37,-0.24c-0.14,-0.05 -0.29,-0.08 -0.43,-0.08c-0.15,0 -0.3,0.03 -0.44,0.08c-0.13,0.06 -0.26,0.14 -0.36,0.24l-1.92,1.84c-0.21,0.2 -0.33,0.48 -0.33,0.77c0,0.29 0.12,0.56 0.33,0.77l9.57,9.2l0.31,0.3c0.1,0.1 0.19,0.22 0.24,0.35c0.06,0.13 0.09,0.27 0.09,0.41c0,0.15 -0.03,0.29 -0.09,0.42c-0.05,0.13 -0.14,0.25 -0.24,0.35l-9.95,9.57c-0.1,0.1 -0.19,0.22 -0.24,0.35c-0.06,0.14 -0.09,0.28 -0.09,0.42c0,0.14 0.03,0.29 0.09,0.42c0.05,0.13 0.14,0.25 0.24,0.35z" fill="#001632" id="svg_4"/>
  </g>
 </g>
</svg>